<?xml version="1.0" standalone="no"?>
<!DOCTYPE svg PUBLIC "-//W3C//DTD SVG 20010904//EN"
 "http://www.w3.org/TR/2001/REC-SVG-20010904/DTD/svg10.dtd">
<svg version="1.0" xmlns="http://www.w3.org/2000/svg"
 width="566.000000pt" height="542.000000pt" viewBox="0 0 566.000000 542.000000"
 preserveAspectRatio="xMidYMid meet">
<metadata>
Created by potrace 1.16, written by Peter Selinger 2001-2019
</metadata>
<g transform="translate(0.000000,542.000000) scale(0.100000,-0.100000)"
fill="#000000" stroke="none">
<path d="M1300 4844 c-79 -34 -108 -89 -121 -227 -7 -68 -18 -121 -35 -161
-95 -226 -105 -354 -49 -596 24 -102 26 -129 22 -240 -4 -107 -10 -139 -38
-225 l-34 -100 3 -345 c1 -190 -2 -473 -8 -630 -9 -241 -9 -308 4 -435 9 -82
16 -213 17 -290 0 -77 4 -162 10 -190 5 -27 13 -121 18 -207 10 -184 26 -231
100 -283 37 -26 51 -30 105 -29 70 1 0 -34 691 334 215 114 417 217 450 228
33 11 106 34 163 52 142 45 255 114 350 215 l75 80 -7 -185 c-4 -102 -11 -221
-16 -265 -5 -44 -13 -170 -16 -280 -11 -315 18 -479 100 -572 45 -52 87 -73
144 -73 116 0 193 79 233 240 23 92 19 497 -8 705 -28 217 -37 394 -28 533 l7
111 67 26 c86 34 217 109 363 207 147 98 318 188 358 188 20 0 33 -7 42 -22
15 -27 16 -168 4 -498 -7 -190 -6 -237 8 -300 30 -141 100 -210 213 -210 61 0
84 9 130 53 81 76 89 254 28 602 -47 275 -52 360 -30 569 26 252 11 294 -143
397 -42 29 -116 87 -165 131 -142 128 -266 200 -448 264 -122 42 -184 76 -334
179 -60 42 -174 119 -252 171 -79 52 -182 131 -230 175 -134 123 -284 217
-443 276 -59 22 -105 45 -298 150 -34 19 -99 48 -145 64 -135 50 -202 87 -426
238 -118 79 -237 154 -265 167 -58 27 -116 30 -166 8z m148 -135 c29 -16 136
-86 236 -154 192 -129 293 -185 413 -228 79 -29 147 -62 266 -130 44 -25 116
-60 160 -78 194 -76 321 -155 452 -279 39 -37 142 -115 230 -173 88 -59 205
-139 260 -177 127 -89 246 -151 377 -196 136 -47 260 -121 388 -234 58 -50
139 -115 180 -143 103 -71 105 -79 89 -241 -24 -224 -18 -380 24 -626 43 -254
52 -365 38 -439 -13 -65 -34 -91 -73 -91 -45 0 -65 16 -85 67 -15 41 -18 78
-18 238 0 105 4 255 9 335 18 291 -31 396 -181 388 -51 -3 -81 -13 -169 -57
-138 -70 -161 -70 -279 -6 -107 59 -163 64 -241 24 -125 -64 -191 -236 -215
-560 -14 -173 -3 -420 27 -630 33 -239 34 -547 0 -661 -49 -169 -169 -156
-211 24 -27 115 -31 347 -9 588 22 246 25 611 5 750 -33 236 -97 397 -195 496
-102 102 -183 115 -384 64 -341 -86 -522 -81 -749 19 -243 107 -421 125 -568
57 l-55 -25 -1 97 c0 53 -4 153 -7 222 -10 188 0 296 39 430 33 110 34 122 34
275 0 135 -4 173 -23 244 -47 172 -40 314 23 461 44 102 53 138 64 243 14 142
46 165 149 106z m140 -2161 c37 -11 113 -40 169 -64 143 -61 200 -74 344 -81
146 -7 230 4 430 53 196 48 240 45 307 -19 73 -70 122 -187 152 -366 l20 -113
-106 -113 c-143 -155 -210 -196 -417 -255 -141 -41 -147 -43 -467 -215 -464
-249 -684 -363 -713 -370 -38 -10 -74 16 -86 62 -6 21 -11 81 -11 133 0 52 -7
136 -15 185 -8 50 -15 149 -15 221 0 72 -7 200 -16 285 -18 177 -12 450 12
535 21 77 75 121 179 148 37 9 165 -5 233 -26z m2130 -175 c34 -18 62 -36 62
-38 0 -14 -292 -185 -316 -185 -23 0 20 139 62 203 27 42 77 69 109 60 11 -3
48 -21 83 -40z"/>
<path d="M1941 1954 c-49 -41 -41 -112 16 -142 77 -41 158 40 118 118 -28 54
-86 65 -134 24z"/>
</g>
</svg>
